Coordinates
version=1
nRows=13
nColumns=22
inDegrees=yes

Units are S.I. units (second, meters, Newtons, ...)
If the header above contains a line with 'inDegrees', this indicates whether rotational values are in degrees (yes) or radians (no).

endheader
time	pelvis_tilt	pelvis_list	pelvis_rotation	pelvis_tx	pelvis_ty	pelvis_tz	hip_flexion_r	hip_adduction_r	hip_rotation_r	knee_angle_r	ankle_angle_r	subtalar_angle_r	hip_flexion_l	hip_adduction_l	hip_rotation_l	knee_angle_l	ankle_angle_l	subtalar_angle_l	lumbar_extension	lumbar_bending	lumbar_rotation
      3.78000000	      3.62308615	     -2.96109672	    -88.04021839	      0.53333319	      1.07754830	      0.43371214	      2.95502154	     -2.98079836	      7.96574338	    -50.02982128	     -2.29047448	     16.89577951	      8.13977455	      3.88011878	     -0.33235760	    -10.70507107	      4.36927967	      5.02776646	     -3.94438057	     -6.42052300	     -0.22945070
      3.79000000	      3.68744505	     -3.02221438	    -88.03844282	      0.53637104	      1.07833351	      0.43917024	      3.50991692	     -3.26905878	      7.73103801	    -50.60060171	     -1.94900903	     16.72549265	      7.65120438	      4.11898430	     -0.33508496	    -10.52625551	      4.52754206	      4.86016867	     -3.97470510	     -6.52501374	     -0.56007815
      3.80000000	      3.73365224	     -3.05725884	    -88.02491601	      0.53929908	      1.07906062	      0.44447612	      4.07679141	     -3.52445256	      7.50926686	    -51.07988173	     -1.59959960	     16.24539842	      7.19613937	      4.33667313	     -0.28237733	    -10.34267768	      4.68646028	      4.62439007	     -3.98044021	     -6.61794915	     -0.84952293
      3.81000000	      3.78020913	     -3.09383043	    -87.99930683	      0.54211860	      1.07975052	      0.44961361	      4.62624832	     -3.76670950	      7.30656856	    -51.47888532	     -1.23294776	     15.74499369	      6.76120031	      4.54665941	     -0.24245186	    -10.17969371	      4.84269769	      4.48370311	     -4.00203946	     -6.71690943	     -1.13336508
      3.82000000	      3.82614852	     -3.13062083	    -87.96125423	      0.54484439	      1.08039303	      0.45461744	      5.15722337	     -4.00308924	      7.09886679	    -51.80024275	     -0.86896771	     15.22716870	      6.34122838	      4.74853993	     -0.22480024	    -10.02710037	      4.99315416	      4.36873495	     -4.03308783	     -6.82008527	     -1.38511725
      3.83000000	      3.86259106	     -3.16618792	    -87.93378925	      0.54740062	      1.08097486	      0.45946548	      5.67765985	     -4.20580610	      6.93460366	    -52.05396112	     -0.53096916	     14.64704274	      5.93137506	      4.93043326	     -0.18938587	     -9.87551842	      5.16382198	      4.25022468	     -4.07746781	     -6.92463483	     -1.59418099
      3.84000000	      3.89707886	     -3.20329763	    -87.91137756	      0.54980838	      1.08149530	      0.46416110	      6.18670441	     -4.38625848	      6.79945551	    -52.24846326	     -0.21026419	     14.04759655	      5.52884190	      5.10118393	     -0.14571865	     -9.72425491	      5.32902958	      4.13045834	     -4.13686433	     -7.03651799	     -1.77244100
      3.85000000	      3.93372535	     -3.24330599	    -87.88849668	      0.55209311	      1.08195372	      0.46871454	      6.68124378	     -4.55638760	      6.67395505	    -52.38463741	      0.13472286	     13.48399021	      5.13408368	      5.26608801	     -0.10150791	     -9.57766000	      5.48843621	      4.00949600	     -4.21159113	     -7.15940597	     -1.92933875
      3.86000000	      3.95677823	     -3.28460657	    -87.87194145	      0.55424253	      1.08235594	      0.47313603	      7.16274197	     -4.69235995	      6.56567013	    -52.46055690	      0.49366480	     12.84446114	      4.73750653	      5.41006226	     -0.01977644	     -9.41860893	      5.64841421	      3.85129106	     -4.29628517	     -7.27342143	     -2.05797531
      3.87000000	      4.01606739	     -3.33022711	    -87.82882988	      0.55637945	      1.08269832	      0.47742436	      7.62513242	     -4.87874320	      6.41152340	    -52.48551080	      0.98070323	     12.40259934	      4.35845556	      5.58937782	      0.02482477	     -9.28585987	      5.76955094	      3.72162783	     -4.39867663	     -7.42448229	     -2.20771804
      3.88000000	      4.04601003	     -3.37703888	    -87.79046573	      0.55838232	      1.08300425	      0.48162853	      8.06729691	     -5.01371084	      6.26362204	    -52.44620342	      1.51641863	     11.79235318	      3.96525894	      5.73199863	      0.13423876	     -9.12429929	      5.88663719	      3.50775227	     -4.49990408	     -7.54904809	     -2.33319784
      3.89000000	      4.10543656	     -3.42155927	    -87.72101276	      0.56038781	      1.08325976	      0.48570535	      8.49686541	     -5.19278923	      6.06891308	    -52.36163946	      2.15481341	     11.40215990	      3.59882644	      5.90368535	      0.21327227	     -8.99482429	      5.97334887	      3.34081789	     -4.61122259	     -7.69800260	     -2.48923045
      3.90000000	      4.13038561	     -3.47236947	    -87.64682197	      0.56228287	      1.08350875	      0.48970939	      8.89378895	     -5.31942908	      5.86904020	    -52.21201231	      2.82753342	     10.83139229	      3.21250607	      6.03413565	      0.35458165	     -8.83383983	      6.02697813	      3.05535592	     -4.72676835	     -7.80946710	     -2.63599236
